<?xml version="1.0" standalone="no"?>
<!DOCTYPE svg PUBLIC "-//W3C//DTD SVG 20010904//EN"
 "http://www.w3.org/TR/2001/REC-SVG-20010904/DTD/svg10.dtd">
<svg version="1.0" xmlns="http://www.w3.org/2000/svg"
 width="1280.000000pt" height="1093.000000pt" viewBox="0 0 1280.000000 1093.000000"
 preserveAspectRatio="xMidYMid meet">
<metadata>
Created by potrace 1.15, written by Peter Selinger 2001-2017
</metadata>
<g transform="translate(0.000000,1093.000000) scale(0.100000,-0.100000)"
fill="#000000" stroke="none">
<path d="M1750 10389 c-101 -17 -272 -112 -352 -196 -82 -85 -104 -181 -103
-453 0 -132 1 -136 33 -200 18 -36 39 -76 48 -90 12 -20 14 -46 9 -132 l-5
-107 28 -15 c16 -8 82 -54 148 -102 142 -104 238 -164 262 -164 25 0 138 76
160 108 11 15 25 56 31 92 16 82 80 220 126 272 20 21 40 50 45 64 13 34 13
492 0 572 -17 102 -47 167 -105 231 -97 104 -200 142 -325 120z"/>
<path d="M1230 9109 c-41 -27 -97 -56 -125 -64 -79 -24 -256 -36 -435 -29
l-166 7 -38 -44 c-57 -67 -135 -231 -146 -309 -5 -36 -21 -96 -34 -132 -69
-183 -161 -675 -246 -1311 -46 -346 -41 -436 46 -856 24 -119 44 -233 44 -254
0 -21 9 -84 21 -140 20 -98 21 -102 3 -159 -16 -55 -16 -60 -1 -75 15 -16 20
-13 69 40 82 89 88 83 88 -76 0 -148 12 -207 62 -297 33 -60 139 -169 188
-195 30 -15 30 -16 30 -98 1 -105 12 -151 62 -261 l41 -89 -8 -96 c-4 -53 -8
-231 -9 -396 -1 -252 -5 -325 -24 -460 -12 -88 -24 -214 -26 -280 -3 -91 -11
-150 -35 -245 -65 -261 -76 -419 -45 -655 8 -66 18 -233 22 -370 6 -220 9
-254 25 -279 23 -35 19 -40 -76 -86 -45 -22 -77 -44 -84 -60 -16 -32 -17 -215
-1 -261 6 -19 20 -47 31 -62 l20 -29 -36 -156 c-66 -287 -71 -406 -21 -505 34
-68 60 -95 114 -120 56 -25 181 -27 260 -4 137 40 175 150 186 535 l7 217 48
51 c39 42 49 60 54 100 20 151 30 177 113 309 49 76 59 143 42 272 -18 148
-24 523 -10 656 6 60 22 143 35 184 29 89 30 106 9 273 l-16 127 40 149 c22
82 43 183 46 224 6 85 41 211 87 321 49 115 125 336 188 543 32 105 62 191 68
193 26 9 35 -68 29 -241 -8 -197 0 -270 63 -574 67 -315 76 -596 29 -842 -24
-128 -26 -354 -5 -540 15 -135 10 -270 -11 -308 -11 -18 -11 -42 -3 -110 6
-48 11 -115 11 -150 0 -71 19 -125 48 -141 11 -6 91 -31 179 -57 200 -58 219
-66 374 -170 170 -113 212 -128 359 -129 103 0 120 3 165 25 66 33 83 67 66
129 -22 84 -95 153 -280 266 -102 62 -125 84 -185 176 -32 48 -36 61 -36 121
0 37 -4 78 -9 91 -6 14 -33 126 -60 250 -71 315 -70 371 19 667 65 215 66 300
4 392 -28 41 -34 59 -30 83 17 88 18 113 6 175 l-13 69 55 93 c98 166 104 186
112 413 4 126 34 298 71 421 21 67 28 202 17 304 -8 72 -7 88 6 103 28 32 0
630 -53 1137 -6 56 53 -152 115 -410 17 -69 38 -149 46 -177 21 -74 167 -363
196 -391 23 -21 25 -28 20 -95 -5 -81 9 -110 48 -100 21 6 35 43 46 127 6 40
10 46 30 46 23 0 24 -3 24 -80 l0 -80 -30 -6 c-44 -9 -57 -30 -35 -54 18 -19
17 -20 -7 -20 -38 0 -55 -25 -34 -49 10 -11 14 -25 10 -36 -10 -24 14 -36 59
-29 l38 6 -3 -441 -3 -440 -37 -38 c-44 -46 -58 -79 -58 -141 0 -67 17 -118
47 -142 24 -19 39 -20 297 -20 301 0 305 1 332 66 30 71 10 199 -36 231 -47
33 -45 -28 -50 1593 l-5 1535 -259 3 c-255 2 -260 2 -283 -20 -39 -37 -55
-132 -33 -207 5 -19 27 -52 47 -73 l38 -39 3 -177 c2 -97 1 -174 -2 -172 -3 3
-45 156 -95 340 -49 184 -106 394 -126 465 -37 137 -100 450 -160 800 -31 178
-40 213 -58 229 -12 10 -101 58 -198 106 -108 55 -208 113 -260 152 -103 79
-209 151 -209 143 0 -13 26 -53 102 -162 132 -188 168 -287 168 -466 0 -110
-15 -240 -31 -267 -7 -13 -8 -12 -9 2 0 30 -51 180 -86 256 -18 40 -74 142
-124 226 -49 84 -90 161 -90 172 0 11 7 29 15 41 15 21 13 26 -25 87 -26 41
-46 63 -54 60 -8 -3 -37 7 -65 22 -34 17 -73 28 -115 31 -80 7 -113 -1 -121
-28 -6 -18 10 -39 91 -120 l98 -98 -21 -48 c-12 -26 -25 -66 -28 -87 -6 -38
-8 -36 -136 204 -71 134 -147 266 -168 295 -35 46 -121 127 -132 124 -2 0 -38
-23 -79 -50z m-500 -1888 c20 -186 -1 -364 -67 -581 l-17 -55 -9 70 c-4 39 -7
160 -4 270 4 185 6 210 37 335 38 155 40 153 60 -39z"/>
<path d="M6205 7431 c-117 -29 -233 -163 -321 -372 -337 -798 -278 -2444 106
-3004 67 -97 173 -175 240 -175 l30 0 0 141 c0 126 -2 144 -20 166 -31 40 -50
117 -61 253 -7 81 -9 546 -6 1315 3 1096 5 1195 21 1257 10 37 29 84 42 104
24 34 24 41 22 177 -2 83 -7 141 -13 143 -5 1 -23 -1 -40 -5z"/>
<path d="M6314 7427 c-2 -7 -3 -73 -2 -147 l3 -133 30 -10 c17 -5 49 -28 72
-50 108 -104 187 -352 233 -733 11 -93 27 -188 36 -212 26 -70 84 -77 113 -13
14 32 16 104 19 619 2 393 -1 595 -8 622 -6 23 -21 47 -35 56 -39 25 -68 0
-95 -81 -12 -35 -25 -67 -30 -70 -5 -3 -21 5 -37 18 -57 47 -126 90 -181 112
-82 32 -111 38 -118 22z"/>
<path d="M8240 7426 c-66 -17 -111 -48 -178 -121 -153 -167 -243 -487 -258
-920 -16 -454 61 -809 229 -1060 54 -81 103 -140 222 -267 162 -173 205 -261
213 -439 8 -190 -26 -314 -114 -409 l-55 -58 3 -134 3 -133 34 -3 c22 -2 54 7
97 28 188 92 336 398 388 800 56 435 9 873 -125 1159 -61 132 -137 236 -282
389 -195 205 -237 296 -237 514 0 163 27 261 96 345 l35 42 -3 137 c-2 81 -7
138 -13 140 -5 1 -30 -3 -55 -10z"/>
<path d="M8367 7433 c-4 -3 -7 -67 -7 -140 l0 -134 49 -48 c115 -112 200 -372
231 -704 6 -67 17 -125 30 -153 18 -42 22 -45 52 -42 24 2 37 11 53 38 19 34
20 49 20 565 0 561 -2 582 -46 606 -34 18 -57 -6 -79 -81 -11 -39 -25 -70 -31
-70 -5 0 -39 27 -75 61 -78 72 -176 123 -197 102z"/>
<path d="M3690 7223 c0 -146 1 -150 24 -173 14 -12 34 -41 45 -64 37 -79 43
-177 39 -651 -3 -418 -5 -454 -23 -505 -14 -39 -29 -61 -52 -75 l-32 -20 -1
-141 c0 -140 0 -142 25 -158 29 -19 50 -57 66 -117 7 -27 14 -221 19 -499 6
-339 12 -478 24 -545 30 -174 90 -307 164 -363 28 -21 48 -27 103 -30 59 -4
74 -1 112 21 94 55 187 254 216 461 24 170 -68 292 -116 155 -10 -27 -21 -49
-25 -49 -3 0 -8 163 -11 363 -3 330 -6 369 -25 444 -41 158 -112 263 -214 318
-29 15 -55 29 -57 31 -1 1 26 30 62 64 109 101 166 213 210 408 19 86 21 127
22 372 0 226 -3 291 -18 365 -56 278 -148 437 -289 500 -52 24 -81 29 -165 33
l-103 5 0 -150z"/>
<path d="M4517 7350 c-42 -33 -60 -131 -37 -208 5 -19 27 -54 50 -78 l40 -44
-2 -1369 -3 -1370 -38 -39 c-20 -21 -42 -54 -47 -73 -23 -78 -5 -175 37 -209
25 -19 37 -20 282 -18 l256 3 0 1710 0 1710 -256 3 c-245 2 -257 1 -282 -18z"/>
<path d="M5117 7364 c-4 -4 -7 -69 -7 -145 l0 -139 38 -19 c120 -61 213 -268
258 -573 21 -147 34 -178 72 -178 17 0 37 9 48 21 18 20 19 44 19 528 l0 506
-211 3 c-115 1 -213 -1 -217 -4z"/>
<path d="M7025 7346 c-64 -64 -58 -199 12 -277 22 -25 39 -55 44 -82 11 -56
11 -2609 0 -2665 -6 -29 -21 -56 -44 -80 -21 -22 -40 -55 -47 -82 -21 -78 5
-186 49 -210 28 -14 542 -13 575 1 37 17 56 67 56 143 0 78 -17 125 -53 149
-15 10 -30 33 -36 54 -15 52 -15 2663 -1 2715 6 20 22 46 35 57 40 31 55 70
55 144 0 75 -18 130 -48 146 -14 7 -118 11 -297 11 l-276 0 -24 -24z"/>
<path d="M8934 7357 c-2 -7 -3 -263 -2 -568 3 -531 4 -556 23 -594 15 -29 27
-41 47 -43 57 -7 81 59 93 258 19 293 60 518 120 643 12 27 15 61 13 173 l-3
139 -143 3 c-112 2 -144 0 -148 -11z"/>
<path d="M9287 7363 c-4 -3 -7 -689 -7 -1524 0 -1046 -3 -1526 -11 -1546 -5
-15 -23 -41 -39 -58 -16 -16 -34 -43 -39 -58 -15 -40 -14 -131 3 -171 27 -65
31 -66 333 -66 268 0 272 0 298 23 32 28 51 112 41 180 -6 37 -18 59 -52 98
l-44 50 0 1524 c0 838 -3 1530 -6 1539 -5 14 -36 16 -238 16 -128 0 -236 -3
-239 -7z"/>
<path d="M9820 7225 c0 -105 4 -154 14 -173 46 -88 86 -280 106 -497 6 -71 15
-173 20 -226 9 -101 29 -165 55 -175 29 -12 62 5 79 40 14 31 16 95 14 603
l-3 568 -142 3 -143 3 0 -146z"/>
<path d="M10233 7348 c-31 -33 -43 -71 -43 -133 0 -69 13 -101 58 -148 l37
-38 3 -1352 c1 -744 0 -1362 -3 -1375 -3 -12 -21 -40 -40 -61 -19 -20 -39 -50
-45 -65 -14 -39 -12 -131 4 -171 27 -64 34 -66 317 -63 l254 3 0 1710 0 1710
-261 3 c-259 2 -260 2 -281 -20z"/>
<path d="M10837 7364 c-4 -4 -7 -69 -7 -144 l0 -137 49 -31 c116 -72 195 -251
243 -547 26 -166 37 -195 76 -195 17 0 37 9 48 21 18 20 19 44 19 528 l0 506
-211 3 c-115 1 -213 -1 -217 -4z"/>
<path d="M11478 7350 c-26 -20 -48 -84 -48 -137 0 -52 21 -104 58 -145 31 -34
37 -49 44 -107 9 -87 9 -2526 -1 -2614 -6 -59 -11 -72 -44 -105 -21 -21 -42
-54 -47 -73 -21 -73 -5 -165 35 -205 l24 -24 273 0 c303 0 307 1 334 66 31 74
10 210 -37 235 -45 24 -44 -29 -49 1589 l-5 1535 -256 3 c-243 2 -257 1 -281
-18z"/>
<path d="M12078 7364 c-5 -4 -8 -70 -8 -147 l0 -140 34 -38 c68 -75 70 -89 74
-614 3 -491 -2 -573 -39 -634 -10 -17 -30 -37 -44 -43 -25 -11 -25 -11 -25
-152 l0 -141 33 -27 c64 -50 68 -85 77 -593 8 -460 17 -566 56 -695 18 -62 56
-139 88 -183 54 -74 172 -100 257 -57 70 36 144 164 194 335 44 153 31 322
-27 341 -26 8 -53 -18 -72 -71 -13 -37 -15 -21 -15 215 -2 404 -23 570 -93
708 -36 72 -127 163 -183 183 -19 7 -35 15 -35 19 0 3 20 20 45 38 123 93 210
280 246 532 18 126 15 452 -5 583 -22 141 -58 264 -104 352 -48 93 -140 186
-207 209 -53 19 -235 34 -247 20z"/>
<path d="M5277 6382 c-18 -20 -28 -65 -52 -240 -18 -130 -52 -232 -89 -271
-26 -27 -26 -29 -26 -178 0 -120 3 -152 14 -156 34 -13 76 -130 97 -267 30
-199 38 -237 58 -261 25 -31 64 -20 82 23 22 51 20 1290 -1 1333 -18 37 -58
45 -83 17z"/>
<path d="M10997 6383 c-19 -22 -31 -74 -52 -227 -19 -141 -45 -227 -86 -278
l-29 -37 0 -145 c0 -140 1 -146 25 -172 45 -49 78 -166 106 -385 16 -128 57
-181 102 -131 34 37 38 119 35 729 -3 551 -4 601 -21 631 -20 36 -54 43 -80
15z"/>
<path d="M6322 5683 c-27 -11 -46 -67 -46 -138 1 -85 21 -129 70 -152 25 -12
37 -27 45 -52 7 -24 9 -202 7 -536 -3 -486 -4 -501 -25 -554 -12 -30 -31 -64
-43 -76 -19 -20 -20 -32 -18 -156 l3 -134 33 -3 c52 -5 153 48 229 120 71 68
150 181 207 295 l36 73 0 485 0 486 29 57 c34 68 43 126 31 200 -16 95 -6 92
-294 91 -138 0 -257 -3 -264 -6z"/>
<path d="M7835 5186 c-31 -48 -36 -147 -33 -682 4 -557 6 -581 49 -605 36 -19
56 -1 84 71 17 44 32 70 42 70 8 0 40 -27 70 -60 60 -64 121 -100 171 -100
l32 0 0 140 0 140 -40 36 c-107 97 -197 382 -240 764 -18 160 -34 223 -64 242
-22 15 -56 8 -71 -16z"/>
<path d="M5473 5025 c-22 -16 -28 -38 -72 -267 -52 -267 -144 -453 -252 -509
l-40 -20 3 -142 3 -142 214 -3 c153 -2 217 1 228 9 12 10 14 89 11 513 -3 451
-5 504 -20 532 -10 17 -25 34 -33 38 -21 8 -17 8 -42 -9z"/>
<path d="M11186 5017 c-18 -18 -28 -47 -41 -123 -64 -372 -139 -552 -263 -634
l-53 -34 3 -141 3 -140 214 -3 c118 -1 218 1 223 6 4 4 8 233 8 507 1 518 -2
555 -40 575 -26 14 -28 13 -54 -13z"/>
</g>
</svg>
